<svg width="1413" height="158" viewBox="0 0 1413 158" fill="none" xmlns="http://www.w3.org/2000/svg">
<g clip-path="url(#clip0_320_11)">
<path d="M738.158 70.6368L738.662 69.773L738.652 69.7672L738.642 69.7616L738.158 70.6368ZM703.87 61.8504L703.731 62.8408L703.742 62.8422L703.87 61.8504ZM677.51 56.9214L677.04 57.8038L677.08 57.8253L677.122 57.8431L677.51 56.9214ZM703.655 54.1355H702.655V55.1355H703.655V54.1355ZM749.516 54.1355V55.1355H750.516V54.1355H749.516ZM630.15 83.0663L630.67 82.2125L630.667 82.2106L630.15 83.0663ZM664.009 92.9243L663.868 93.9142L663.882 93.9162L663.896 93.9179L664.009 92.9243ZM688.44 96.7817L688.137 97.7346L688.171 97.7456L688.206 97.7541L688.44 96.7817ZM664.438 100.211H665.438V99.2105H664.438V100.211ZM615.577 100.211V99.2105H614.577V100.211H615.577ZM683.297 151.143C711.799 151.143 729.813 145.34 740.708 136.064C751.639 126.757 755.231 114.107 755.231 100.853H753.231C753.231 113.745 749.75 125.739 739.412 134.541C729.037 143.374 711.584 149.143 683.297 149.143V151.143ZM755.231 100.853C755.231 86.174 749.284 75.9694 738.662 69.773L737.654 71.5006C747.605 77.3051 753.231 86.8164 753.231 100.853H755.231ZM738.642 69.7616C730.316 65.1604 719.001 62.7876 703.997 60.8586L703.742 62.8422C718.741 64.7706 729.713 67.1125 737.674 71.512L738.642 69.7616ZM704.009 60.8601C697.899 60.0026 692.344 59.2013 687.81 58.4011C683.245 57.5956 679.816 56.8073 677.898 55.9998L677.122 57.8431C679.276 58.75 682.919 59.5689 687.462 60.3707C692.036 61.1778 697.625 61.9837 703.731 62.8407L704.009 60.8601ZM677.981 56.0391C676.502 55.2504 675.365 54.2412 674.591 52.9513C673.817 51.6611 673.367 50.0249 673.367 47.9207H671.367C671.367 50.317 671.882 52.3239 672.876 53.9803C673.87 55.6371 675.304 56.8781 677.04 57.8038L677.981 56.0391ZM673.367 47.9207C673.367 45.3516 674.497 43.0178 676.774 41.2985C679.07 39.5638 682.588 38.4199 687.368 38.4199V36.4199C682.291 36.4199 678.308 37.6333 675.568 39.7026C672.808 41.7871 671.367 44.7037 671.367 47.9207H673.367ZM687.368 38.4199C692.46 38.4199 696.234 39.7176 698.742 42.2256C701.25 44.7335 702.655 48.6155 702.655 54.1355H704.655C704.655 48.2975 703.167 43.8217 700.157 40.8113C697.146 37.801 692.778 36.4199 687.368 36.4199V38.4199ZM703.655 55.1355H749.516V53.1355H703.655V55.1355ZM750.516 54.1355C750.516 38.9887 746.944 26.321 736.639 17.4809C726.377 8.67644 709.635 3.84594 683.725 3.84594V5.84594C709.463 5.84594 725.616 10.659 735.337 18.9988C745.017 27.3029 748.516 39.28 748.516 54.1355H750.516ZM683.725 3.84594C661.31 3.84594 643.934 8.69298 632.133 17.2702C620.297 25.8735 614.148 38.1778 614.148 52.8497H616.148C616.148 38.805 622.001 27.1075 633.309 18.888C644.653 10.6425 661.565 5.84594 683.725 5.84594V3.84594ZM614.148 52.8497C614.148 67.7136 620.071 78.1406 629.632 83.9221L630.667 82.2106C621.799 76.8483 616.148 67.1309 616.148 52.8497H614.148ZM629.629 83.9201C638.61 89.3962 653.371 92.4147 663.868 93.9142L664.151 91.9343C653.646 90.4336 639.262 87.4517 630.67 82.2126L629.629 83.9201ZM663.896 93.9179C673.373 94.9948 683.539 96.2716 688.137 97.7346L688.743 95.8288C683.912 94.2915 673.504 92.9968 664.122 91.9307L663.896 93.9179ZM688.206 97.7541C690.709 98.3548 692.299 99.4247 693.279 100.793C694.269 102.175 694.726 103.982 694.726 106.211H696.726C696.726 103.726 696.218 101.461 694.905 99.628C693.582 97.7818 691.528 96.4944 688.673 95.8093L688.206 97.7541ZM694.726 106.211C694.726 108.907 693.932 111.443 691.866 113.32C689.785 115.209 686.262 116.569 680.511 116.569V118.569C686.546 118.569 690.63 117.143 693.211 114.8C695.806 112.444 696.726 109.301 696.726 106.211H694.726ZM680.511 116.569C674.918 116.569 671.22 114.97 668.894 112.257C666.542 109.514 665.438 105.453 665.438 100.211H663.438C663.438 105.683 664.584 110.302 667.375 113.559C670.193 116.846 674.531 118.569 680.511 118.569V116.569ZM664.438 99.2105H615.577V101.211H664.438V99.2105ZM614.577 100.211C614.577 112.659 617.228 125.467 627.287 135.139C637.33 144.798 654.567 151.143 683.297 151.143V149.143C654.808 149.143 638.184 142.844 628.673 133.698C619.176 124.565 616.577 112.407 616.577 100.211H614.577ZM766.334 148H765.334V149H766.334V148ZM822.695 148V149H823.695V148H822.695ZM822.695 98.2818V97.2818H821.695V98.2818H822.695ZM855.912 98.2818H856.912V97.2818H855.912V98.2818ZM855.912 148H854.912V149H855.912V148ZM912.059 148V149H913.059V148H912.059ZM912.059 6.98896H913.059V5.98896H912.059V6.98896ZM855.912 6.98896V5.98896H854.912V6.98896H855.912ZM855.912 54.1355V55.1355H856.912V54.1355H855.912ZM822.695 54.1355H821.695V55.1355H822.695V54.1355ZM822.695 6.98896H823.695V5.98896H822.695V6.98896ZM766.334 6.98896V5.98896H765.334V6.98896H766.334ZM766.334 149H822.695V147H766.334V149ZM823.695 148V98.2818H821.695V148H823.695ZM822.695 99.2818H855.912V97.2818H822.695V99.2818ZM854.912 98.2818V148H856.912V98.2818H854.912ZM855.912 149H912.059V147H855.912V149ZM913.059 148V6.98896H911.059V148H913.059ZM912.059 5.98896H855.912V7.98896H912.059V5.98896ZM854.912 6.98896V54.1355H856.912V6.98896H854.912ZM855.912 53.1355H822.695V55.1355H855.912V53.1355ZM823.695 54.1355V6.98896H821.695V54.1355H823.695ZM822.695 5.98896H766.334V7.98896H822.695V5.98896ZM765.334 6.98896V148H767.334V6.98896H765.334ZM1022.4 148L1021.43 148.229L1021.61 149H1022.4V148ZM1090.55 148V149H1091.94L1091.5 147.682L1090.55 148ZM1043.19 6.98896L1044.14 6.67057L1043.91 5.98896H1043.19V6.98896ZM968.824 6.98896V5.98896H968.105L967.876 6.67057L968.824 6.98896ZM921.464 148L920.516 147.682L920.073 149H921.464V148ZM977.182 148V149H977.967L978.154 148.238L977.182 148ZM982.54 126.141V125.141H981.755L981.569 125.903L982.54 126.141ZM1017.26 126.141L1018.23 125.912L1018.05 125.141H1017.26V126.141ZM988.54 101.068L987.568 100.834L987.271 102.068H988.54V101.068ZM999.684 54.7784V53.7784H998.896L998.712 54.5444L999.684 54.7784ZM1000.76 54.7784L1001.73 54.5529L1001.55 53.7784H1000.76V54.7784ZM1011.47 101.068V102.068H1012.73L1012.44 100.842L1011.47 101.068ZM1022.4 149H1090.55V147H1022.4V149ZM1091.5 147.682L1044.14 6.67057L1042.24 7.30735L1089.6 148.318L1091.5 147.682ZM1043.19 5.98896H968.824V7.98896H1043.19V5.98896ZM967.876 6.67057L920.516 147.682L922.412 148.318L969.772 7.30735L967.876 6.67057ZM921.464 149H977.182V147H921.464V149ZM978.154 148.238L983.511 126.379L981.569 125.903L976.211 147.762L978.154 148.238ZM982.54 127.141H1017.26V125.141H982.54V127.141ZM1016.28 126.37L1021.43 148.229L1023.37 147.771L1018.23 125.912L1016.28 126.37ZM989.513 101.302L1000.66 55.0125L998.712 54.5444L987.568 100.834L989.513 101.302ZM999.684 55.7784H1000.76V53.7784H999.684V55.7784ZM999.781 55.0039L1010.5 101.293L1012.44 100.842L1001.73 54.5529L999.781 55.0039ZM1011.47 100.068H988.54V102.068H1011.47V100.068ZM1099.72 148H1098.72V149H1099.72V148ZM1099.72 6.98896V5.98896H1098.72V6.98896H1099.72ZM1156.29 105.568H1155.29V106.568H1156.29V105.568ZM1156.29 49.4209V48.4209H1155.29V49.4209H1156.29ZM1099.72 149H1166.58V147H1099.72V149ZM1166.58 149C1193.16 149 1212.27 143.409 1224.73 131.526C1237.2 119.632 1242.8 101.629 1242.8 77.2802H1240.8C1240.8 101.363 1235.26 118.72 1223.35 130.079C1211.43 141.447 1192.93 147 1166.58 147V149ZM1242.8 77.2802C1242.8 55.1463 1236.97 37.2669 1223.95 24.9342C1210.94 12.611 1190.94 5.98896 1162.94 5.98896V7.98896C1190.65 7.98896 1210.08 14.5465 1222.57 26.386C1235.06 38.2158 1240.8 55.4821 1240.8 77.2802H1242.8ZM1162.94 5.98896H1099.72V7.98896H1162.94V5.98896ZM1098.72 6.98896V148H1100.72V6.98896H1098.72ZM1157.29 105.568V49.4209H1155.29V105.568H1157.29ZM1156.29 50.4209H1165.94V48.4209H1156.29V50.4209ZM1165.94 50.4209C1171.56 50.4209 1176.06 52.4483 1179.19 56.7102C1182.36 61.022 1184.22 67.7414 1184.22 77.2802H1186.22C1186.22 67.5317 1184.33 60.3215 1180.81 55.5254C1177.24 50.6795 1172.1 48.4209 1165.94 48.4209V50.4209ZM1184.22 77.2802C1184.22 87.4913 1182.51 94.3122 1179.5 98.561C1176.55 102.737 1172.23 104.568 1166.58 104.568V106.568C1172.72 106.568 1177.72 104.541 1181.14 99.7171C1184.5 94.9651 1186.22 87.6421 1186.22 77.2802H1184.22ZM1166.58 104.568H1156.29V106.568H1166.58V104.568ZM1328.97 151.143C1355.93 151.143 1376.14 143.916 1389.62 130.905C1403.1 117.891 1409.69 99.2252 1409.69 76.6373H1407.69C1407.69 98.8386 1401.22 116.925 1388.23 129.467C1375.24 142.012 1355.59 149.143 1328.97 149.143V151.143ZM1409.69 76.6373C1409.69 54.777 1402.76 36.5419 1389.12 23.7781C1375.49 11.0215 1355.29 3.84594 1328.97 3.84594V5.84594C1354.94 5.84594 1374.6 12.9215 1387.76 25.2383C1400.91 37.5479 1407.69 55.2084 1407.69 76.6373H1409.69ZM1328.97 3.84594C1302.86 3.84594 1282.77 11.0226 1269.19 23.7795C1255.61 36.5429 1248.68 54.7771 1248.68 76.6373H1250.68C1250.68 55.2083 1257.46 37.5469 1270.56 25.2369C1283.67 12.9204 1303.22 5.84594 1328.97 5.84594V3.84594ZM1248.68 76.6373C1248.68 100.084 1255.55 118.755 1269.11 131.556C1282.67 144.349 1302.77 151.143 1328.97 151.143V149.143C1303.1 149.143 1283.55 142.436 1270.48 130.102C1257.42 117.776 1250.68 99.6937 1250.68 76.6373H1248.68ZM1328.97 106.711C1323.42 106.711 1318.49 104.874 1314.91 100.366C1311.31 95.8189 1308.97 88.4172 1308.97 77.0659H1306.97C1306.97 88.6449 1309.35 96.5658 1313.35 101.609C1317.38 106.691 1322.95 108.711 1328.97 108.711V106.711ZM1308.97 77.0659C1308.97 66.3703 1311.3 59.1796 1314.91 54.6809C1318.49 50.2138 1323.44 48.2778 1328.97 48.2778V46.2778C1322.93 46.2778 1317.37 48.4136 1313.35 53.4294C1309.35 58.4136 1306.97 66.1169 1306.97 77.0659H1308.97ZM1328.97 48.2778C1334.62 48.2778 1339.61 50.2176 1343.22 54.6836C1346.86 59.1811 1349.19 66.3699 1349.19 77.0659H1351.19C1351.19 66.1173 1348.8 58.4121 1344.78 53.4267C1340.72 48.4098 1335.11 46.2778 1328.97 46.2778V48.2778ZM1349.19 77.0659C1349.19 88.4176 1346.85 95.8174 1343.22 100.363C1339.62 104.87 1334.63 106.711 1328.97 106.711V108.711C1335.1 108.711 1340.72 106.695 1344.78 101.612C1348.81 96.5674 1351.19 88.6445 1351.19 77.0659H1349.19Z" fill="#F2F7F7"/>
<path d="M4.92896 148H52.5041V96.5674H68.5768V148H116.152V6.98896H68.5768V56.0642H52.5041V6.98896H4.92896V148ZM126.531 148H174.106V6.98896H126.531V148ZM184.7 148H232.275V106.64L235.919 99.139L249.42 148H305.995L274.707 68.2795L301.924 6.98896H251.777L232.49 67.6366H232.275V6.98896H184.7V148ZM376.886 148H434.105L402.602 6.98896H338.955L307.666 148H354.813L357.17 126.57H374.743L376.886 148ZM359.956 100.639L365.314 49.8495H366.6L371.957 100.639H359.956ZM440.022 148H487.597V98.9247H492.097C497.24 98.9247 499.812 101.282 499.812 108.14V148H547.387V110.283C547.387 96.996 543.101 87.3524 527.028 83.4949V83.0663C542.672 78.566 547.387 66.7794 547.387 50.0638C547.387 22.8473 534.315 6.98896 492.097 6.98896H440.022V148ZM487.597 75.5658V47.0635H491.668C498.098 47.0635 500.455 50.0638 500.455 61.4218C500.455 72.5655 497.883 75.5658 491.883 75.5658H487.597ZM556.391 148H603.966V6.98896H556.391V148Z" fill="#F2F7F7"/>
</g>
<defs>
<clipPath id="clip0_320_11">
<rect width="1413" height="158" fill="white"/>
</clipPath>
</defs>
</svg>
